<?xml version="1.0" encoding="UTF-8" standalone="no"?>
<!-- Created with Inkscape (http://www.inkscape.org/) -->

<svg
   width="57.763195mm"
   height="9.4750366mm"
   viewBox="0 0 57.763195 9.4750366"
   version="1.1"
   id="svg1"
   inkscape:version="1.4.2 (ebf0e94, 2025-05-08)"
   sodipodi:docname="gymtrack_logo_black.svg"
   xmlns:inkscape="http://www.inkscape.org/namespaces/inkscape"
   xmlns:sodipodi="http://sodipodi.sourceforge.net/DTD/sodipodi-0.dtd"
   xmlns="http://www.w3.org/2000/svg"
   xmlns:svg="http://www.w3.org/2000/svg">
  <sodipodi:namedview
     id="namedview1"
     pagecolor="#ffffff"
     bordercolor="#000000"
     borderopacity="0.25"
     inkscape:showpageshadow="2"
     inkscape:pageopacity="0.0"
     inkscape:pagecheckerboard="0"
     inkscape:deskcolor="#d1d1d1"
     inkscape:document-units="mm"
     inkscape:zoom="1.0396254"
     inkscape:cx="330.40747"
     inkscape:cy="118.79279"
     inkscape:window-width="5120"
     inkscape:window-height="1369"
     inkscape:window-x="-8"
     inkscape:window-y="-8"
     inkscape:window-maximized="1"
     inkscape:current-layer="layer1" />
  <defs
     id="defs1" />
  <g
     inkscape:label="Layer 1"
     inkscape:groupmode="layer"
     id="layer1"
     transform="translate(-17.462505,-116.94583)">
    <path
       id="path1"
       style="fill:#000000;stroke-width:0.0440803"
       d="m 25.03137,126.33858 c -0.15044,-0.043 -0.34878,-0.13435 -0.4408,-0.20279 -0.092,-0.0684 -0.17307,-0.12857 -0.18005,-0.13341 -0.018,-0.0125 0.4325,-1.0449 0.48347,-1.10815 0.0311,-0.0384 0.0937,-0.0156 0.24,0.0875 0.16969,0.11967 0.24333,0.14169 0.51502,0.15435 0.29046,0.0141 0.33439,0.003 0.52435,-0.11826 0.26228,-0.16836 0.408314,-0.43214 0.370431,-0.66908 -0.01406,-0.0906 -0.08748,-0.30063 -0.162411,-0.4668 -0.13622,-0.30245 -0.39997,-0.95051 -0.97511,-2.39593 -0.16881,-0.42428 -0.46465,-1.15665 -0.65741,-1.62752 -0.23008,-0.562 -0.33395,-0.8663 -0.30238,-0.88581 0.0264,-0.0164 0.36925,-0.0278 0.76178,-0.0255 l 0.71369,0.005 0.0959,0.2006 c 0.0528,0.11029 0.22685,0.54673 0.38685,0.96977 0.455902,1.20541 0.925407,2.37804 0.952168,2.37807 0.01406,1e-5 0.0703,-0.14372 0.126226,-0.31955 0.05608,-0.17578 0.138099,-0.40036 0.182528,-0.49908 0.04437,-0.0987 0.21032,-0.53512 0.368821,-0.96977 0.158501,-0.43465 0.375757,-1.00846 0.4828,-1.27515 l 0.194604,-0.48489 0.716989,0.0109 c 0.394332,0.006 0.72388,0.0177 0.732316,0.0261 0.0078,0.008 -0.135912,0.39038 -0.320831,0.84876 -0.184887,0.45839 -0.381006,0.96235 -0.435792,1.11993 -0.05483,0.1576 -0.232582,0.62375 -0.395067,1.0359 -0.162485,0.41214 -0.474613,1.20559 -0.693619,1.76322 -0.595934,1.51735 -0.736142,1.79053 -1.110666,2.1641 -0.430372,0.42928 -0.633677,0.50386 -1.362107,0.49961 -0.37528,-0.002 -0.62114,-0.0269 -0.81178,-0.0814 z m -4.15662,-1.78931 c -0.0364,-0.008 -0.21377,-0.0378 -0.39422,-0.0673 -1.47866,-0.24147 -2.64005,-1.33904 -2.96018,-2.79755 -0.0931,-0.42406 -0.0701,-1.42556 0.0423,-1.84476 0.15701,-0.58536 0.45305,-1.08914 0.90965,-1.54807 0.53378,-0.53646 1.0928,-0.8489 1.82935,-1.02243 0.44308,-0.10436 1.38167,-0.0931 1.86093,0.0225 0.69469,0.16746 1.30998,0.49352 1.70696,0.90457 l 0.19576,0.20269 -0.10733,0.12201 c -0.14231,0.16169 -0.27034,0.28984 -0.61797,0.6185 l -0.28975,0.27391 -0.23273,-0.19866 c -0.52208,-0.44564 -1.04896,-0.6189 -1.77562,-0.58391 -0.38971,0.0187 -0.46485,0.0372 -0.77328,0.1895 -1.34434,0.66386 -1.63691,2.49729 -0.58261,3.65087 0.28287,0.30949 0.7226,0.53624 1.17048,0.60356 0.48882,0.0734 1.1925,-0.0419 1.50522,-0.24683 0.099,-0.0648 0.1,-0.0744 0.1,-1.07828 v -1.01284 l 0.69426,6.7e-4 c 0.38185,3.3e-4 0.71755,0.0156 0.74603,0.0336 0.0378,0.0241 0.052,0.40891 0.0525,1.42917 l 7.2e-4,1.39625 -0.17261,0.15591 c -0.32489,0.29352 -1.13636,0.62582 -1.78674,0.73167 -0.27195,0.0442 -1.01418,0.0875 -1.12102,0.0653 z m 29.842374,-0.12294 c -0.46075,-0.14185 -0.654977,-0.24336 -0.863128,-0.45123 -0.278107,-0.27773 -0.433887,-0.63597 -0.452612,-1.04084 -0.04181,-0.90392 0.492724,-1.51166 1.51262,-1.7198 0.122039,-0.0248 0.625904,-0.0447 1.119704,-0.0439 l 0.897829,0.001 -0.02874,-0.18462 c -0.04533,-0.29107 -0.233614,-0.55247 -0.510613,-0.70891 -0.227032,-0.12826 -0.270459,-0.13685 -0.683245,-0.13576 -0.493249,0.001 -0.732777,0.0639 -1.228034,0.3208 l -0.302351,0.15685 -0.07703,-0.10217 c -0.04237,-0.0562 -0.17321,-0.2976 -0.290755,-0.53651 -0.209112,-0.425 -0.211861,-0.43587 -0.127538,-0.50381 0.169585,-0.13669 0.729812,-0.3756 1.153653,-0.49205 0.372829,-0.10248 0.514865,-0.11841 1.048382,-0.11841 0.510121,3e-5 0.680054,0.0176 0.980048,0.1017 0.654551,0.18338 1.101808,0.52231 1.354045,1.02605 0.240304,0.47993 0.265381,0.73263 0.266051,2.68095 l 6.67e-4,1.74117 -0.716306,0.0125 -0.716304,0.0125 v -0.26381 -0.26381 l -0.280809,0.21255 c -0.3896,0.29489 -0.608643,0.36404 -1.217922,0.38451 -0.435792,0.0141 -0.553313,0.003 -0.837525,-0.0847 z m 1.658882,-1.13584 c 0.340433,-0.16479 0.589214,-0.5849 0.589214,-0.99497 0,-0.13013 -0.01515,-0.14715 -0.155205,-0.17338 -0.08536,-0.0159 -0.417617,-0.0208 -0.738345,-0.0109 -0.63882,0.0203 -0.85381,0.0878 -1.041821,0.32684 -0.242057,0.30774 0.0089,0.8333 0.452715,0.94781 0.218965,0.0566 0.681231,0.006 0.893441,-0.0958 z m 5.197321,1.17066 c -0.575976,-0.11951 -0.958707,-0.33425 -1.391744,-0.78076 -0.511282,-0.52718 -0.768854,-1.11832 -0.82167,-1.88579 -0.03029,-0.44013 0.08348,-0.98328 0.303567,-1.4493 0.204559,-0.43312 0.696319,-0.9228 1.150426,-1.14555 0.553777,-0.27165 0.839907,-0.33483 1.50707,-0.3328 0.523969,0.002 0.605255,0.0125 0.949156,0.13576 0.206864,0.0737 0.464134,0.18949 0.57172,0.2574 0.277485,0.17517 0.650299,0.53885 0.780998,0.76187 0.107792,0.18395 0.10873,0.19211 0.02882,0.25068 -0.14113,0.10341 -1.079267,0.59632 -1.13501,0.59632 -0.02906,0 -0.123164,-0.0942 -0.20914,-0.20938 -0.09303,-0.12467 -0.253004,-0.26292 -0.395113,-0.34162 -0.210031,-0.11623 -0.281267,-0.13217 -0.591435,-0.13154 -0.283719,6.7e-4 -0.391411,0.0211 -0.551004,0.10451 -0.557514,0.29155 -0.78798,0.64258 -0.826423,1.25876 -0.0439,0.70365 0.233266,1.24499 0.772892,1.50955 0.212802,0.10435 0.306622,0.12341 0.604535,0.12279 0.307279,-6.8e-4 0.383256,-0.0177 0.590623,-0.13154 0.130881,-0.0719 0.289578,-0.19747 0.352643,-0.27892 0.06307,-0.0814 0.147363,-0.19043 0.187324,-0.24216 0.07039,-0.0911 0.07727,-0.0917 0.220402,-0.0194 0.290325,0.14685 1.064463,0.56137 1.082972,0.57988 0.01031,0.0109 -0.0354,0.10498 -0.101699,0.21036 -0.36191,0.5749 -0.783677,0.90652 -1.406577,1.10591 -0.356125,0.11404 -1.247962,0.14341 -1.673336,0.055 z m 10.06541,-0.0439 c -0.127835,-0.0695 -0.259787,-0.30925 -0.258287,-0.46936 5e-4,-0.057 0.03785,-0.18475 0.08292,-0.28401 0.06364,-0.14013 0.123914,-0.19725 0.269741,-0.2556 0.242261,-0.0969 0.400875,-0.0608 0.568032,0.12967 0.348278,0.39667 0.131632,0.94819 -0.370663,0.94365 -0.09698,-8.5e-4 -0.22826,-0.0298 -0.291746,-0.0644 z m 2.076999,-0.0256 c -0.614268,-0.21515 -0.969472,-0.70337 -1.005057,-1.38143 -0.04634,-0.88263 0.453622,-1.54208 1.264201,-1.66754 0.720258,-0.11154 1.366145,0.18387 1.656934,0.75771 0.08973,0.1771 0.199777,0.73037 0.199777,1.00447 0,0.0442 -0.241872,0.0562 -1.124048,0.0562 -1.241007,0 -1.226847,-0.003 -1.032176,0.2697 0.104668,0.147 0.344532,0.28198 0.579285,0.32603 0.21807,0.0409 0.594182,-0.0464 0.766673,-0.17796 l 0.142114,-0.10842 0.223879,0.26793 c 0.123133,0.14732 0.223836,0.28107 0.223791,0.29713 0,0.0611 -0.436207,0.32299 -0.639311,0.38412 -0.306697,0.0923 -0.953725,0.0778 -1.256058,-0.028 z m 1.232226,-1.8988 c -0.111245,-0.38789 -0.612096,-0.59076 -1.02873,-0.41669 -0.207696,0.0869 -0.36963,0.33525 -0.340815,0.52294 0.0028,0.0181 0.321072,0.0331 0.707287,0.0331 h 0.702207 z m 2.024693,1.9219 c -0.278561,-0.0858 -0.538909,-0.37344 -0.642847,-0.71025 -0.06675,-0.2163 -0.07927,-0.42044 -0.07936,-1.29274 v -1.0359 l 0.429781,-0.0125 0.429783,-0.0125 v 0.95073 c 0,1.03306 0.02735,1.18571 0.237082,1.32314 0.300558,0.19693 0.752072,0.07 0.942993,-0.26503 0.09672,-0.16973 0.100012,-0.20952 0.08834,-1.06569 l -0.01219,-0.88936 0.126726,-0.0253 c 0.06971,-0.0141 0.263109,-0.0253 0.429783,-0.0253 h 0.302956 v 1.54281 1.54282 H 74.82898 c -0.421735,0 -0.413883,0.005 -0.39735,-0.23832 l 0.0087,-0.1281 -0.180035,0.15403 c -0.09903,0.0847 -0.256872,0.17713 -0.350781,0.20526 -0.22801,0.0683 -0.685875,0.0597 -0.936953,-0.0177 z M 30.70296,124.29618 c -0.04249,-3.56356 -0.03859,-5.32327 0.01094,-5.3282 0.272449,-0.0267 1.26295,-0.0162 1.323454,0.0141 0.05796,0.0291 0.07717,0.0931 0.07717,0.25746 0,0.12029 0.0125,0.21885 0.02718,0.21885 0.01562,0 0.09842,-0.0625 0.185262,-0.13873 0.222505,-0.19538 0.655064,-0.38702 0.991829,-0.43946 0.637317,-0.0992 1.383255,0.14356 1.750186,0.56948 l 0.192073,0.22298 0.266215,-0.24647 c 0.657923,-0.60912 1.648034,-0.74641 2.460412,-0.34119 0.50817,0.25349 0.75128,0.54087 1.005795,1.18887 0.10248,0.26106 0.104042,0.2897 0.120446,2.21504 l 0.01656,1.95055 h -0.753046 -0.753061 l -0.0047,-0.40773 c -0.0016,-0.22426 -0.0078,-0.96317 -0.01406,-1.64199 -0.0078,-1.01114 -0.02328,-1.27954 -0.08452,-1.48478 -0.09076,-0.30456 -0.234846,-0.48422 -0.48558,-0.60561 -0.457632,-0.22153 -1.013778,-0.009 -1.253639,0.47966 l -0.119977,0.24424 -0.01406,1.7081 -0.01406,1.70811 h -0.746984 c -0.410844,0 -0.747203,-0.0156 -0.747468,-0.0331 -4.22e-4,-0.0181 -0.0062,-0.74715 -0.0125,-1.61994 -0.01406,-1.75131 -0.03249,-1.90438 -0.269949,-2.22974 -0.194057,-0.26582 -0.40822,-0.36726 -0.709773,-0.33612 -0.458929,0.0473 -0.76898,0.30808 -0.891878,0.74997 -0.06889,0.24753 -0.09967,1.0436 -0.09889,2.55423 l 4.53e-4,0.91466 h -0.727332 -0.727316 z m 10.713215,-2.74321 v -2.88648 l -1.068939,-0.0125 -1.068955,-0.0125 v -0.6612 -0.66122 h 2.953381 2.953382 l 0.007,0.57304 c 0.0039,0.31518 -0.0015,0.61769 -0.01187,0.67224 l -0.01893,0.0992 h -1.079131 -1.07912 v 2.88725 2.88725 h -0.793445 -0.793444 z m 4.275794,0.13044 v -2.75609 l 0.738345,0.0125 0.738346,0.0125 0.01281,0.36365 c 0.007,0.20002 0.03184,0.36366 0.0551,0.36366 0.02326,0 0.0423,-0.0358 0.0423,-0.0795 0,-0.12951 0.262362,-0.34452 0.636507,-0.52177 0.302721,-0.14341 0.402416,-0.16832 0.738345,-0.18438 l 0.388361,-0.0186 v 0.7327 0.73272 l -0.407745,5e-4 c -0.334202,3.3e-4 -0.447492,0.0189 -0.628142,0.10327 -0.253754,0.11841 -0.525548,0.39953 -0.640302,0.66228 -0.111729,0.25582 -0.126898,0.49065 -0.129131,2.00003 l -0.002,1.33342 H 46.463356 45.69195 Z m 15.82483,-0.99075 v -3.74683 h 0.772225 0.77222 l -0.0017,2.06077 c -9.99e-4,1.13341 -0.0013,2.07478 -8.32e-4,2.09192 5e-4,0.0172 0.09506,-0.0708 0.210213,-0.1954 0.115166,-0.12466 0.59486,-0.60976 1.066002,-1.07808 l 0.856619,-0.85151 h 0.922463 0.922461 l -0.412591,0.44815 c -0.226928,0.24649 -0.695257,0.74125 -1.040738,1.09948 -0.345479,0.35821 -0.628145,0.67598 -0.628145,0.70612 0,0.0302 0.07561,0.14528 0.168027,0.256 0.0924,0.1106 0.234793,0.30038 0.316399,0.42159 0.08161,0.12123 0.368004,0.52424 0.63644,0.8956 0.821784,1.13686 1.126759,1.57143 1.127003,1.60596 0,0.0181 -0.415056,0.0331 -0.922625,0.0331 h -0.922851 l -0.327746,-0.45184 c -0.180258,-0.2485 -0.537255,-0.74439 -0.793319,-1.10198 l -0.465575,-0.65016 -0.364064,0.39477 -0.364062,0.39477 0.01203,0.70721 0.01203,0.70723 H 62.29169 61.516695 Z" />
  </g>
</svg>
